<?xml version="1.0" encoding="UTF-8" standalone="no"?>
<!-- Created with Inkscape (http://www.inkscape.org/) -->

<svg
   width="96"
   height="32"
   viewBox="0 0 25.399999 8.4666659"
   version="1.1"
   id="svg5"
   inkscape:version="1.1.2 (0a00cf5339, 2022-02-04)"
   sodipodi:docname="player.svg"
   inkscape:export-filename="/home/brylie/code/OpenLearningQuest/game/project/resources/sprites/player.png"
   inkscape:export-xdpi="960.00006"
   inkscape:export-ydpi="960.00006"
   xmlns:inkscape="http://www.inkscape.org/namespaces/inkscape"
   xmlns:sodipodi="http://sodipodi.sourceforge.net/DTD/sodipodi-0.dtd"
   xmlns="http://www.w3.org/2000/svg"
   xmlns:svg="http://www.w3.org/2000/svg"
   xmlns:rdf="http://www.w3.org/1999/02/22-rdf-syntax-ns#"
   xmlns:cc="http://creativecommons.org/ns#">
  <sodipodi:namedview
     id="namedview7"
     pagecolor="#ffffff"
     bordercolor="#666666"
     borderopacity="1.0"
     inkscape:pageshadow="2"
     inkscape:pageopacity="0.0"
     inkscape:pagecheckerboard="0"
     inkscape:document-units="px"
     showgrid="true"
     width="96px"
     units="px"
     showguides="true"
     inkscape:guide-bbox="true"
     inkscape:zoom="16.549473"
     inkscape:cx="31.723064"
     inkscape:cy="10.876479"
     inkscape:window-width="1920"
     inkscape:window-height="1007"
     inkscape:window-x="0"
     inkscape:window-y="0"
     inkscape:window-maximized="1"
     inkscape:current-layer="layer1">
    <inkscape:grid
       type="xygrid"
       id="grid824" />
    <sodipodi:guide
       position="8.202083,2.6458331"
       orientation="1,0"
       id="guide850" />
    <sodipodi:guide
       position="16.404166,2.9104164"
       orientation="1,0"
       id="guide852" />
  </sodipodi:namedview>
  <defs
     id="defs2" />
  <g
     inkscape:label="Layer 1"
     inkscape:groupmode="layer"
     id="layer1">
    <g
       id="g2718"
       transform="translate(-0.26458341)">
      <rect
         style="opacity:1;fill:#3771c8;stroke:#000000;stroke-width:0.264583;stroke-linejoin:bevel;stroke-miterlimit:4;stroke-dasharray:none;stroke-opacity:1"
         id="rect920"
         width="3.4395833"
         height="5.8208327"
         x="2.6458333"
         y="1.3229166" />
      <path
         style="opacity:1;fill:#3771c8;stroke:#000000;stroke-width:0.264583;stroke-linejoin:bevel;stroke-miterlimit:4;stroke-dasharray:none;stroke-opacity:1"
         id="path1866"
         d="m 3.5760773,2.3892686 c 0.00164,0.044315 0.00148,0.088681 0.00172,0.1330211 0.00114,0.065345 7.144e-4,0.1305722 -0.00254,0.1958428 -0.00493,0.060811 -0.00345,0.1222121 -0.010507,0.1828294 -0.00355,0.02684 -0.00693,0.053691 -0.0095,0.080644 0,0 0.1505108,-0.075062 0.1505108,-0.075062 v 0 c 0.00206,-0.026636 0.00516,-0.053164 0.00777,-0.079749 0.00366,-0.06054 0.00238,-0.1213506 0.00724,-0.18186 0.00353,-0.065832 0.00436,-0.1316402 0.00407,-0.1975691 2.469e-4,-0.044925 8.6e-5,-0.089874 0.00172,-0.1347746 0,0 -0.1504876,0.076677 -0.1504876,0.076677 z" />
      <path
         style="opacity:1;fill:#3771c8;stroke:#000000;stroke-width:0.264583;stroke-linejoin:bevel;stroke-miterlimit:4;stroke-dasharray:none;stroke-opacity:1"
         id="path1868"
         d="m 4.8650405,2.350512 c 0.015637,0.052642 0.024006,0.1070215 0.030881,0.1613894 0.011041,0.079253 0.019047,0.1590508 0.018486,0.2391188 -0.00111,0.046122 -0.00502,0.092107 -0.00856,0.1380879 -0.00188,0.018714 -0.00188,0.037475 -0.00153,0.056249 0.0022,0.036125 -0.00278,0.072033 -0.00656,0.1078836 2.86e-5,0.013504 -0.00405,0.02622 -0.0074,0.039115 0,0 0.1517134,-0.073052 0.1517134,-0.073052 v 0 c 0.00266,-0.01338 0.00488,-0.026812 0.00529,-0.040493 0.00317,-0.036561 0.00735,-0.073094 0.00706,-0.1098503 5.027e-4,-0.018426 0.00101,-0.036852 0.00148,-0.055278 0.00148,-0.045595 0.00371,-0.091177 0.00376,-0.136807 -0.00167,-0.080462 -0.00956,-0.1606733 -0.019897,-0.2404589 -0.00643,-0.05618 -0.014438,-0.1121976 -0.026456,-0.1674869 0,0 -0.1482841,0.081582 -0.1482841,0.081582 z" />
      <path
         style="opacity:1;fill:#3771c8;stroke:#000000;stroke-width:0.264583;stroke-linejoin:bevel;stroke-miterlimit:4;stroke-dasharray:none;stroke-opacity:1"
         id="path1870"
         d="m 3.3291092,4.0724159 c -0.00282,0.031805 -0.00607,0.063562 -0.00742,0.095471 4.498e-4,0.028667 0.010194,0.053951 0.028278,0.075804 0.021108,0.023606 0.046097,0.042557 0.072503,0.05976 0.055993,0.035657 0.1211234,0.051642 0.1839865,0.070534 0.084592,0.024056 0.1699784,0.045081 0.2572494,0.056281 0.098379,0.00958 0.1972942,0.00794 0.2959772,0.00974 0.060226,0.00111 0.1074126,0.00304 0.1672153,0.00519 0.129513,0.00638 0.2591972,0.00651 0.388775,0.010374 0.088173,0.00127 0.1761752,0.010094 0.2643486,0.010388 0.1030992,-0.00143 0.1356561,-0.046335 0.2396049,-0.1093811 0.017926,-0.016349 0.00928,-0.00784 0.025919,-0.025514 0,0 -0.1542872,0.063955 -0.1542872,0.063955 v 0 c -0.01728,0.016412 -0.00833,0.00837 -0.026879,0.02408 0.043409,-0.024527 0.086573,-0.049494 0.1302271,-0.073583 0.0042,-0.00233 -0.00763,0.00588 -0.011811,0.00824 -0.020762,0.011708 -0.046663,0.01306 -0.069682,0.015087 -0.089802,0.00395 -0.1798013,-0.00423 -0.2695893,-0.00557 -0.1306943,-0.00404 -0.2614993,-0.00364 -0.3921979,-0.0079 -0.1521997,-0.00376 -0.3047661,-0.0042 -0.456489,-0.017798 -0.086259,-0.011478 -0.171146,-0.030712 -0.2548081,-0.054659 -0.06052,-0.019127 -0.1233207,-0.034644 -0.1772594,-0.06949 -0.024966,-0.016314 -0.04843,-0.034295 -0.068502,-0.056535 -0.015936,-0.018267 -0.023722,-0.039789 -0.022966,-0.064314 0.00177,-0.031602 0.0036,-0.06335 0.00973,-0.094466 0,0 -0.1519288,0.074308 -0.1519288,0.074308 z" />
    </g>
    <g
       id="g2723">
      <rect
         style="fill:#3771c8;stroke:#000000;stroke-width:0.264583;stroke-linejoin:bevel;stroke-miterlimit:4;stroke-dasharray:none;stroke-opacity:1"
         id="rect920-3"
         width="3.4395833"
         height="5.8208327"
         x="10.847916"
         y="1.3229166" />
      <path
         style="fill:#3771c8;stroke:#000000;stroke-width:0.264583;stroke-linejoin:bevel;stroke-miterlimit:4;stroke-dasharray:none;stroke-opacity:1"
         id="path1868-7"
         d="m 13.367838,2.3941738 c 0.01564,0.052642 0.02401,0.1070215 0.03088,0.1613894 0.01104,0.079253 0.01905,0.1590508 0.01849,0.2391188 -0.0011,0.046122 -0.005,0.092107 -0.0086,0.1380879 -0.0019,0.018714 -0.0019,0.037475 -0.0015,0.056249 0.0022,0.036125 -0.0028,0.072033 -0.0066,0.1078836 2.8e-5,0.013504 -0.004,0.02622 -0.0074,0.039115 0,0 0.151713,-0.073052 0.151713,-0.073052 v 0 c 0.0027,-0.01338 0.0049,-0.026812 0.0053,-0.040493 0.0032,-0.036561 0.0073,-0.073094 0.0071,-0.1098504 5.03e-4,-0.018426 10e-4,-0.036852 0.0015,-0.055278 0.0015,-0.045595 0.0037,-0.091177 0.0038,-0.1368071 -0.0017,-0.080462 -0.0096,-0.1606733 -0.0199,-0.2404589 -0.0064,-0.05618 -0.01444,-0.1121976 -0.02646,-0.1674869 0,0 -0.148284,0.081582 -0.148284,0.081582 z" />
      <path
         style="fill:#3771c8;stroke:#000000;stroke-width:0.231915;stroke-linejoin:bevel;stroke-miterlimit:4;stroke-dasharray:none;stroke-opacity:1"
         id="path1870-5"
         d="m 12.83749,4.0825759 c -0.0022,0.031805 -0.0047,0.063562 -0.0057,0.095471 3.46e-4,0.028667 0.0078,0.053951 0.02173,0.075804 0.01622,0.023606 0.03542,0.042557 0.0557,0.05976 0.04302,0.035657 0.09306,0.051642 0.141357,0.070534 0.06499,0.024056 0.130595,0.045081 0.197645,0.056281 0.07559,0.00958 0.151583,0.00794 0.227401,0.00974 0.04627,0.00111 0.08252,0.00304 0.128472,0.00519 0.09951,0.00638 0.199142,0.00651 0.298697,0.010374 0.06774,0.00127 0.135356,0.010094 0.2031,0.010388 0.07921,-0.00143 0.104226,-0.046335 0.184089,-0.1093811 0.01378,-0.016349 0.0071,-0.00784 0.01992,-0.025514 0,0 -0.11854,0.063955 -0.11854,0.063955 v 0 c -0.01328,0.016412 -0.0064,0.00837 -0.02065,0.02408 0.03335,-0.024527 0.06651,-0.049494 0.100054,-0.073583 0.0032,-0.00233 -0.0058,0.00588 -0.0091,0.00824 -0.01595,0.011708 -0.03585,0.01306 -0.05354,0.015087 -0.06899,0.00395 -0.138141,-0.00423 -0.207126,-0.00557 -0.100413,-0.00404 -0.200911,-0.00364 -0.301327,-0.0079 -0.116936,-0.00376 -0.234153,-0.0042 -0.350722,-0.017798 -0.06627,-0.011478 -0.131492,-0.030712 -0.19577,-0.054659 -0.0465,-0.019127 -0.09475,-0.034644 -0.136189,-0.06949 -0.01919,-0.016314 -0.03721,-0.034295 -0.05263,-0.056535 -0.01225,-0.018267 -0.01822,-0.039789 -0.01765,-0.064314 0.0014,-0.031602 0.0028,-0.06335 0.0075,-0.094466 0,0 -0.116728,0.074308 -0.116728,0.074308 z" />
    </g>
    <rect
       style="fill:#3771c8;stroke:#000000;stroke-width:0.264583;stroke-linejoin:bevel;stroke-miterlimit:4;stroke-dasharray:none;stroke-opacity:1"
       id="rect920-35"
       width="3.4395833"
       height="5.8208327"
       x="19.314583"
       y="1.3229166"
       inkscape:export-filename="/home/brylie/code/OpenLearningQuest/game/project/resources/sprites/player.png"
       inkscape:export-xdpi="960.00006"
       inkscape:export-ydpi="960.00006" />
  </g>
  <metadata
     id="metadata826">
    <rdf:RDF>
      <cc:License
         rdf:about="http://creativecommons.org/licenses/by-sa/4.0/">
        <cc:permits
           rdf:resource="http://creativecommons.org/ns#Reproduction" />
        <cc:permits
           rdf:resource="http://creativecommons.org/ns#Distribution" />
        <cc:requires
           rdf:resource="http://creativecommons.org/ns#Notice" />
        <cc:requires
           rdf:resource="http://creativecommons.org/ns#Attribution" />
        <cc:permits
           rdf:resource="http://creativecommons.org/ns#DerivativeWorks" />
        <cc:requires
           rdf:resource="http://creativecommons.org/ns#ShareAlike" />
      </cc:License>
      <cc:Work
         rdf:about="">
        <cc:license
           rdf:resource="http://creativecommons.org/licenses/by-sa/4.0/" />
      </cc:Work>
    </rdf:RDF>
  </metadata>
</svg>
